<svg id="Layer_1" data-name="Layer 1" xmlns="http://www.w3.org/2000/svg" viewBox="0 0 381.59 121.82"><defs><style>.cls-1{font-size:47.31px;fill:#335d79;font-family:Iceberg-Regular, Iceberg;letter-spacing:0.05em;}.cls-2{fill:#f26727;}</style></defs><text class="cls-1" transform="translate(0 108.39)">CONSOLE CHAMP</text><path class="cls-2" d="M279.42,273.6a30.94,30.94,0,0,1-6.82-10.06h-8.15a12,12,0,0,1,0-23.92h8.15a31,31,0,0,1,6.82-10.07,31.84,31.84,0,0,1,8-5.88h-23a27.91,27.91,0,1,0,0,55.81h23A31.36,31.36,0,0,1,279.42,273.6Z" transform="translate(-100.13 -223.67)"/><path class="cls-2" d="M301.45,263.54h35.88v15.94H301.45a27.91,27.91,0,1,1,0-55.81H345.3l-15.94,16H301.45a12,12,0,0,0,0,23.92Z" transform="translate(-100.13 -223.67)"/></svg>