<svg id="Layer_1" data-name="Layer 1" xmlns="http://www.w3.org/2000/svg" viewBox="0 0 372.31 108.39"><defs><style>.cls-1{fill:#335d79;}.cls-2{fill:#f26727;}</style></defs><path class="cls-1" d="M110.29,330.44l-4.12,4.12H94.49l-4.07-4.12V306l4.07-4.12h11.68l4.12,4.12v3.41l-4.68,4.73V306H95.1v24.46h10.51V327l4.68-4.69Z" transform="translate(-90.42 -226.17)"/><path class="cls-1" d="M139.67,330.44l-4.11,4.12H123.3l-4.07-4.12V306l4.07-4.12h12.26l4.11,4.12Zm-4.68,0V306H123.92v24.46Z" transform="translate(-90.42 -226.17)"/><path class="cls-1" d="M173.64,334.51h-9l-8-28.48h-4l2.93,2.79v25.69h-4.68V301.82H160l7.85,28.57h4.07l-2.93-3V301.82h4.68Z" transform="translate(-90.42 -226.17)"/><path class="cls-1" d="M204.82,306H188.74v8.14h10.83l4,4.07v12.25l-4,4.12H188.12l-4.07-4.12v-3.26l4.69-4.5v7.76h10.17V318.19H188.12l-4.07-4.07V306l4.07-4.12h12.59Z" transform="translate(-90.42 -226.17)"/><path class="cls-1" d="M234.21,330.44l-4.12,4.12H217.83l-4.06-4.12V306l4.06-4.12h12.26l4.12,4.12Zm-4.69,0V306H218.45v24.46Z" transform="translate(-90.42 -226.17)"/><path class="cls-1" d="M265.29,334.56H245.42v-32.7h4.68v28.58h10.51v-4.07l4.68-4.63Z" transform="translate(-90.42 -226.17)"/><path class="cls-1" d="M290.22,334.56H273.9V310l4.12-4h-4.69v-4.12h16.89V306H278.59v11.64l3.45-3.5h8.18v4.07H278.59v12.25h11.63Z" transform="translate(-90.42 -226.17)"/><path class="cls-1" d="M329.73,330.44l-4.12,4.12H313.93l-4.07-4.12V306l4.07-4.12h11.68l4.12,4.12v3.41l-4.68,4.73V306H314.54v24.46h10.51V327l4.68-4.69Z" transform="translate(-90.42 -226.17)"/><path class="cls-1" d="M359.68,334.56H355V318.19H343.92v16.37h-4.68v-32.7h4.68v15.76l3.46-3.5H355V301.86h4.68Z" transform="translate(-90.42 -226.17)"/><path class="cls-1" d="M391.67,334.56H387V322.3H375.91v12.26h-4.69V306l4.12-4.12h16.33ZM390,306h-14v15.76l3.55-3.55H387v-9.28Z" transform="translate(-90.42 -226.17)"/><path class="cls-1" d="M430.42,334.51h-4.69v-25.6l2.93-2.88h-3.83l-6.29,12.16h-3.41L409.08,306h-3.79l2.93,2.88v25.6h-4.68V301.86h8.38l4.87,10.74h.57l5-10.74h8.1Z" transform="translate(-90.42 -226.17)"/><path class="cls-1" d="M462.73,318.19l-4.12,4.11H447v12.26h-4.68V310l4.12-4h-4.69v-4.12h16.89l4.12,4.12Zm-4.68,0V306H447v15.76l3.46-3.55Z" transform="translate(-90.42 -226.17)"/><path class="cls-2" d="M265.59,276.1A30.94,30.94,0,0,1,258.77,266h-8.15a12,12,0,0,1,0-23.92h8.15a31,31,0,0,1,6.82-10.07,31.84,31.84,0,0,1,8-5.88h-23a27.91,27.91,0,1,0,0,55.81h23A31.36,31.36,0,0,1,265.59,276.1Z" transform="translate(-90.42 -226.17)"/><path class="cls-2" d="M287.62,266H323.5V282H287.62a27.91,27.91,0,1,1,0-55.81h43.85l-15.94,16H287.62a12,12,0,0,0,0,23.92Z" transform="translate(-90.42 -226.17)"/></svg>