<svg id="Layer_1" data-name="Layer 1" xmlns="http://www.w3.org/2000/svg" viewBox="0 0 183.32 52.34"><defs><style>.cls-1{fill:#f26727;}.cls-2,.cls-3{fill:#335d79;}.cls-3{stroke:#345d79;stroke-miterlimit:10;}</style></defs><path class="cls-1" d="M204.84,304.55h19.4v8.62h-19.4a15.09,15.09,0,1,1,0-30.17h23.71l-8.62,8.62H204.84a6.47,6.47,0,1,0,0,12.93Z" transform="translate(-189.75 -261.34)"/><path class="cls-1" d="M247.05,270.61h-19.4V262h19.4a15.09,15.09,0,0,1,0,30.18H223.34l8.62-8.63h15.09a6.47,6.47,0,0,0,0-12.93Z" transform="translate(-189.75 -261.34)"/><polygon class="cls-2" points="60.77 37.24 52.29 37.24 43.81 37.24 39.62 51.84 52.29 51.84 64.95 51.84 60.77 37.24"/><path class="cls-3" d="M280.69,275.75l-2,2H273l-2-2V263.86l2-2h5.68l2,2v1.66l-2.28,2.3v-4h-5.1v11.89h5.1v-1.68l2.28-2.28Z" transform="translate(-189.75 -261.34)"/><path class="cls-3" d="M295.71,275.75l-2,2h-6l-2-2V263.86l2-2h6l2,2Zm-2.28,0V263.86h-5.38v11.89Z" transform="translate(-189.75 -261.34)"/><path class="cls-3" d="M313,277.73h-4.39l-3.87-13.85h-1.95l1.42,1.36v12.49H301.9V261.84h4.41l3.82,13.89h2l-1.43-1.45V261.84H313Z" transform="translate(-189.75 -261.34)"/><path class="cls-3" d="M328.85,263.86H321v4h5.27l1.95,2v6l-1.95,2h-5.57l-2-2v-1.59L321,272v3.77H326v-6h-5.24l-2-2v-4l2-2h6.12Z" transform="translate(-189.75 -261.34)"/><path class="cls-3" d="M343.87,275.75l-2,2h-6l-2-2V263.86l2-2h6l2,2Zm-2.28,0V263.86h-5.38v11.89Z" transform="translate(-189.75 -261.34)"/><path class="cls-3" d="M359.71,277.75h-9.66V261.86h2.28v13.89h5.11v-2l2.27-2.25Z" transform="translate(-189.75 -261.34)"/><path class="cls-3" d="M372.57,277.75h-7.94V265.82l2-2h-2.27v-2h8.21v2h-5.66v5.66l1.68-1.7h4v2h-5.66v6h5.66Z" transform="translate(-189.75 -261.34)"/><path class="cls-3" d="M280.69,311.17l-2,2H273l-2-2V299.28l2-2h5.68l2,2v1.66l-2.28,2.3v-4h-5.1v11.89h5.1V309.5l2.28-2.28Z" transform="translate(-189.75 -261.34)"/><path class="cls-3" d="M296,313.17h-2.28v-7.95h-5.38v7.95h-2.28V297.28h2.28v7.66l1.68-1.7h3.7v-6H296Z" transform="translate(-189.75 -261.34)"/><path class="cls-3" d="M312.27,313.17H310v-5.95h-5.4v5.95h-2.28V299.28l2-2h7.94Zm-.83-13.89h-6.83v7.66l1.72-1.72H310v-4.51Z" transform="translate(-189.75 -261.34)"/><path class="cls-3" d="M331.84,313.15h-2.28V300.71l1.43-1.4h-1.87l-3.05,5.91h-1.66l-2.94-5.91h-1.84l1.42,1.4v12.44h-2.27V297.28h4.07l2.36,5.22h.28l2.42-5.22h3.93Z" transform="translate(-189.75 -261.34)"/><path class="cls-3" d="M348.28,305.22l-2,2h-5.66v5.95h-2.27V301.24l2-2h-2.28v-2h8.21l2,2Zm-2.27,0v-5.94h-5.39v7.66l1.68-1.72Z" transform="translate(-189.75 -261.34)"/></svg>