<?xml version="1.0" standalone="no"?>
<!DOCTYPE svg PUBLIC "-//W3C//DTD SVG 20010904//EN"
 "http://www.w3.org/TR/2001/REC-SVG-20010904/DTD/svg10.dtd">
<svg version="1.0" xmlns="http://www.w3.org/2000/svg"
 width="1808.000000pt" height="1808.000000pt" viewBox="0 0 1808.000000 1808.000000"
 preserveAspectRatio="xMidYMid meet">
<metadata>
Created by potrace 1.11, written by Peter Selinger 2001-2013
</metadata>
<g transform="translate(0.000000,1808.000000) scale(0.100000,-0.100000)"
fill="#000000" stroke="none">
<path d="M3925 13494 c-55 -8 -106 -12 -112 -9 -7 2 -13 1 -13 -3 0 -5 -10 -8
-22 -9 -47 -2 -185 -23 -273 -43 -22 -5 -53 -11 -70 -14 -16 -3 -84 -20 -150
-37 -66 -17 -126 -31 -132 -32 -7 0 -13 -4 -13 -8 0 -4 -6 -6 -12 -5 -7 0 -60
-15 -118 -33 -58 -19 -107 -35 -110 -36 -3 -1 -18 -7 -35 -14 -16 -6 -41 -15
-55 -20 -14 -5 -34 -12 -45 -17 -11 -4 -24 -8 -30 -10 -5 -1 -37 -15 -70 -30
-33 -15 -62 -28 -65 -29 -3 0 -14 -6 -25 -12 -11 -6 -24 -11 -28 -11 -8 0
-168 -75 -197 -92 -8 -5 -40 -22 -70 -38 -30 -16 -71 -39 -91 -50 -20 -11 -47
-26 -60 -34 -13 -7 -26 -16 -29 -19 -3 -3 -21 -14 -40 -24 -39 -20 -246 -157
-313 -207 -120 -90 -163 -123 -173 -132 -6 -6 -33 -29 -60 -51 -26 -22 -56
-48 -66 -57 -10 -10 -20 -18 -22 -18 -2 0 -20 -15 -39 -32 -18 -18 -58 -56
-88 -84 -70 -67 -220 -224 -284 -298 -27 -32 -57 -65 -66 -74 -54 -58 -236
-306 -311 -422 -102 -161 -118 -187 -118 -198 0 -7 -3 -12 -8 -12 -4 0 -16
-20 -27 -45 -11 -25 -23 -45 -26 -45 -3 0 -19 -28 -35 -62 -16 -35 -31 -65
-34 -68 -9 -9 -149 -313 -149 -325 -1 -3 -8 -21 -16 -41 -8 -20 -15 -39 -15
-41 0 -3 -6 -19 -14 -36 -39 -84 -105 -302 -162 -530 l-34 -138 3 -927 c1
-510 5 -936 9 -947 3 -11 16 -58 27 -105 17 -69 49 -185 78 -280 2 -8 4 -16 4
-17 0 -2 11 -33 25 -70 14 -38 27 -72 28 -78 4 -13 16 -45 26 -70 5 -11 20
-50 34 -86 97 -251 257 -553 431 -813 93 -139 251 -352 300 -402 11 -12 40
-45 65 -75 50 -59 300 -311 371 -374 25 -22 67 -58 94 -80 26 -22 55 -47 64
-55 9 -8 32 -26 51 -40 19 -13 39 -30 43 -37 4 -7 14 -13 22 -13 7 0 15 -4 17
-8 5 -12 116 -92 128 -92 5 0 10 -4 10 -10 0 -5 15 -17 33 -26 17 -9 34 -20
37 -24 6 -8 256 -161 295 -180 17 -8 32 -17 35 -20 11 -12 253 -131 355 -175
61 -26 124 -53 140 -60 17 -8 59 -24 95 -36 36 -12 70 -27 77 -32 7 -5 17 -6
23 -2 5 3 10 1 10 -6 0 -7 3 -9 7 -6 3 4 12 2 20 -4 7 -6 13 -8 13 -4 0 4 7 2
15 -5 8 -7 15 -9 15 -5 0 4 7 2 15 -5 8 -7 15 -10 15 -6 0 3 12 1 28 -5 15 -6
52 -17 82 -25 30 -8 62 -17 70 -21 8 -3 26 -8 40 -10 14 -2 45 -10 70 -18 45
-13 112 -28 140 -31 8 0 27 -4 41 -8 14 -4 32 -8 40 -10 43 -8 88 -16 119 -21
19 -2 49 -7 65 -11 17 -3 44 -7 60 -9 17 -1 55 -6 85 -9 30 -4 80 -9 110 -11
30 -2 55 -4 55 -5 0 0 36 -3 80 -6 125 -9 4034 -10 4029 -2 -3 4 -31 20 -62
36 -65 32 -129 68 -219 124 -34 21 -65 38 -68 38 -3 0 -11 5 -18 10 -7 6 -62
43 -123 83 -61 41 -118 79 -125 85 -29 24 -109 82 -114 82 -3 0 -15 9 -27 19
-44 38 -67 56 -92 75 -15 11 -37 29 -50 40 -13 12 -34 30 -47 40 -110 88 -437
407 -539 525 -40 47 -63 73 -128 146 -9 11 -28 36 -42 55 -14 19 -32 42 -40
52 -8 9 -20 23 -25 30 -6 7 -25 32 -43 54 -17 23 -32 47 -32 53 0 6 -3 11 -8
11 -4 0 -27 30 -52 68 -25 37 -47 69 -50 72 -14 14 -80 121 -80 130 0 5 -3 10
-8 10 -4 0 -12 9 -17 19 -6 11 -41 73 -78 138 -77 132 -227 431 -227 450 0 7
-4 13 -9 13 -5 0 -11 12 -14 28 -3 15 -12 36 -20 46 -13 18 -39 19 -703 21
-379 1 -700 5 -714 9 -14 3 -43 8 -65 11 -22 2 -55 9 -72 14 -18 5 -33 7 -33
4 0 -3 -6 0 -13 6 -8 6 -17 8 -20 5 -3 -3 -12 -2 -19 2 -7 5 -18 9 -24 10 -6
1 -37 9 -68 18 -31 9 -59 17 -63 17 -5 1 -17 6 -28 12 -11 6 -26 12 -32 13
-16 3 -266 124 -273 133 -3 3 -15 12 -27 19 -56 31 -68 38 -87 55 -11 9 -23
17 -27 17 -4 0 -14 6 -21 13 -7 6 -36 30 -63 52 -119 95 -230 206 -315 315
-19 25 -38 47 -42 48 -5 2 -8 10 -8 18 0 8 -3 14 -8 14 -4 0 -16 17 -27 37
-11 20 -24 41 -30 47 -22 24 -155 282 -155 300 0 4 -8 25 -19 49 -10 23 -27
71 -36 107 -10 36 -21 70 -24 75 -6 11 -9 25 -14 65 -2 14 -7 32 -11 39 -4 7
-6 15 -3 18 3 3 2 15 -2 27 -5 11 -12 48 -16 81 -4 33 -9 74 -11 90 -10 80 -4
364 10 435 3 14 7 43 11 65 3 22 8 47 10 55 3 8 7 29 9 45 2 17 12 54 21 84 9
30 18 62 20 70 2 9 9 30 16 46 7 17 14 35 14 40 6 37 129 295 147 306 5 3 8 8
7 10 -4 5 102 166 128 194 10 11 30 36 44 55 27 36 186 199 230 235 13 12 51
41 84 65 33 25 64 49 70 53 19 15 117 77 122 77 3 0 18 9 34 21 16 11 29 17
29 12 0 -4 4 -3 8 3 8 12 162 87 180 87 6 0 12 4 12 9 0 5 3 7 8 5 4 -3 18 0
32 6 14 5 30 11 35 13 6 1 42 13 80 27 39 13 73 25 78 25 10 1 77 14 102 19
89 18 119 22 185 28 41 4 78 9 82 11 5 3 8 2 8 -3 0 -7 94 -9 125 -3 6 1 15 1
20 0 22 -4 157 0 166 6 5 3 9 2 9 -3 0 -7 94 -9 125 -3 6 1 12 2 15 1 18 -7
340 -4 340 2 0 5 5 5 10 2 6 -4 64 -6 128 -6 64 1 124 1 132 1 8 0 42 0 75 -1
109 -2 104 -3 126 49 43 100 184 382 241 481 33 58 65 114 72 125 6 12 13 23
16 26 13 12 60 91 60 99 0 5 3 11 8 13 4 2 29 37 57 78 27 41 52 77 55 80 3 3
34 45 70 95 35 49 71 97 80 106 25 27 50 59 46 59 -3 0 8 13 22 28 15 15 50
54 77 87 111 130 327 352 465 475 46 41 91 82 100 90 9 8 38 33 65 55 28 21
52 42 55 45 3 4 43 35 90 70 47 36 87 67 90 70 9 9 72 52 215 147 77 51 145
96 150 101 6 4 21 13 35 20 14 7 34 18 45 25 26 16 161 91 200 111 27 15 -153
16 -2030 15 -1682 -1 -2078 -4 -2160 -15z"/>
<path d="M10748 13505 c-2 -2 -48 -6 -103 -10 -55 -4 -116 -9 -135 -11 -19 -2
-57 -6 -85 -8 -59 -7 -91 -11 -210 -32 -49 -9 -99 -17 -110 -18 -12 -1 -26 -6
-33 -10 -7 -4 -12 -5 -12 -2 0 2 -15 0 -32 -5 -18 -5 -46 -12 -63 -15 -16 -3
-48 -10 -70 -16 -22 -6 -47 -12 -55 -13 -8 -1 -22 -5 -30 -8 -14 -5 -121 -36
-145 -42 -5 -1 -17 -5 -25 -8 -8 -3 -40 -13 -70 -22 -30 -9 -64 -20 -75 -25
-11 -5 -42 -16 -70 -25 -27 -10 -69 -26 -92 -36 -24 -11 -50 -19 -58 -19 -8 0
-15 -4 -15 -10 0 -5 -3 -9 -7 -8 -28 5 -395 -174 -553 -270 -19 -12 -48 -29
-65 -38 -41 -23 -286 -186 -306 -204 -9 -8 -34 -26 -54 -40 -20 -14 -44 -32
-53 -41 -9 -8 -32 -26 -51 -39 -18 -13 -46 -35 -61 -49 -15 -14 -49 -44 -76
-66 -63 -52 -181 -163 -260 -245 -140 -145 -191 -200 -185 -200 3 0 -1 -6 -9
-13 -16 -12 -153 -180 -206 -252 -16 -22 -32 -41 -36 -43 -5 -2 -8 -8 -8 -13
0 -7 -24 -43 -78 -114 -16 -22 -81 -125 -120 -191 -12 -22 -31 -53 -41 -70
-47 -77 -113 -203 -172 -329 -13 -27 -26 -52 -29 -55 -3 -3 -6 -12 -8 -20 -2
-8 -17 -44 -34 -80 -17 -36 -31 -69 -33 -75 -1 -5 -7 -21 -12 -35 -72 -175
-164 -472 -208 -675 -9 -38 -35 -170 -39 -200 -8 -45 -16 -96 -21 -132 -3 -18
-7 -48 -10 -65 -9 -62 -14 -113 -21 -203 -3 -49 -7 -112 -10 -140 -4 -61 -4
-422 0 -485 2 -25 7 -77 11 -115 3 -39 8 -95 10 -125 2 -30 5 -55 6 -55 1 0 2
-11 4 -25 1 -14 5 -45 10 -70 4 -25 9 -58 11 -75 2 -16 6 -41 9 -55 3 -14 8
-41 11 -60 3 -19 15 -73 26 -120 11 -47 21 -94 24 -105 2 -11 6 -31 10 -45 3
-14 6 -29 7 -35 2 -5 6 -16 10 -22 5 -7 6 -13 3 -13 -3 0 4 -26 15 -57 11 -32
20 -60 21 -63 2 -15 9 -35 42 -135 20 -60 38 -114 40 -120 2 -5 8 -23 15 -40
7 -16 23 -57 36 -90 31 -77 69 -165 103 -235 15 -30 27 -57 27 -60 0 -3 4 -11
8 -17 5 -7 31 -57 59 -110 28 -54 59 -110 69 -125 11 -14 19 -29 19 -32 0 -6
91 -157 100 -166 10 -10 45 -65 59 -92 8 -16 18 -28 23 -28 4 0 8 -7 8 -15 0
-8 4 -15 8 -15 4 0 16 -15 27 -32 10 -18 21 -35 24 -38 3 -3 28 -34 56 -70 27
-36 60 -76 72 -90 13 -14 23 -28 23 -31 0 -4 12 -20 28 -37 15 -16 47 -53 72
-82 45 -52 317 -328 381 -386 28 -25 149 -125 219 -181 103 -82 265 -197 380
-268 30 -19 60 -38 65 -42 6 -5 21 -14 35 -21 14 -7 43 -23 65 -36 121 -72
547 -275 592 -282 7 -1 27 -9 44 -18 18 -9 40 -16 50 -16 10 0 20 -4 23 -9 4
-6 65 -28 106 -37 7 -1 41 -14 65 -24 11 -5 36 -12 55 -16 19 -3 46 -11 60
-17 14 -5 32 -11 40 -12 8 -1 49 -11 90 -23 41 -11 111 -27 155 -36 44 -8 91
-18 105 -21 14 -3 41 -8 60 -10 19 -3 46 -8 60 -11 14 -3 45 -8 69 -10 24 -2
51 -6 60 -8 9 -3 48 -8 86 -12 39 -3 81 -9 95 -12 14 -3 1425 -7 3135 -9
l3110 -3 -3 62 c-2 35 -3 68 -2 73 5 115 3 215 -4 215 -5 0 -4 6 1 13 10 15
10 97 0 115 -5 6 -5 12 0 12 4 0 7 26 5 57 -1 32 -3 65 -2 73 0 8 0 44 0 80 0
36 0 70 0 75 0 6 1 56 3 113 1 56 -2 102 -7 102 -5 0 -4 6 1 13 10 15 10 97 0
115 -5 6 -5 12 0 12 4 0 7 26 5 58 -1 31 -3 64 -2 72 0 8 0 60 0 115 0 55 0
106 0 113 0 27 0 103 0 117 -1 59 0 119 3 243 1 56 -2 102 -7 102 -5 0 -4 6 1
13 10 15 10 97 0 115 -5 6 -5 12 0 12 4 0 7 26 5 58 -1 31 -3 64 -2 72 0 16 0
208 0 225 0 6 1 31 3 57 2 35 -1 49 -13 54 -8 4 -1297 7 -2865 8 -2242 1
-2856 -1 -2876 -11 -15 -7 -28 -11 -30 -9 -2 2 -26 7 -54 10 -27 4 -72 11
-100 16 -27 5 -63 12 -78 14 -16 3 -43 10 -61 16 -18 6 -42 12 -52 14 -19 4
-107 32 -134 43 -8 4 -17 7 -20 8 -25 8 -68 27 -82 35 -10 6 -25 10 -33 10 -8
0 -15 4 -15 9 0 7 -13 14 -50 25 -3 1 -9 4 -15 8 -5 3 -37 21 -70 39 -197 108
-390 274 -569 490 -33 40 -136 198 -136 209 0 5 -4 10 -10 10 -5 0 -10 6 -10
14 0 8 -8 22 -17 32 -10 10 -17 19 -16 21 1 1 -13 38 -33 80 -64 143 -106 257
-120 326 -2 10 -6 27 -9 37 -7 22 -13 53 -20 95 -2 17 -9 59 -16 95 -14 78
-17 376 -5 480 10 91 14 115 16 115 1 0 3 11 5 25 5 38 15 80 32 139 8 29 17
61 18 70 2 9 4 17 5 19 2 1 3 5 4 10 1 4 15 41 30 82 102 264 258 502 457 697
93 92 228 202 246 203 6 0 13 4 15 8 13 35 424 243 442 224 3 -3 6 0 6 7 0 8
7 11 15 7 8 -3 15 -2 15 3 0 4 6 8 13 8 6 1 55 13 107 27 52 14 96 26 98 26 1
0 3 0 5 1 4 1 43 7 97 14 30 3 61 8 69 11 7 2 1031 4 2274 4 l2261 1 866 869
c476 478 1048 1053 1273 1278 224 225 407 411 407 414 0 5 -7316 8 -7322 3z"/>
</g>
</svg>
